<?xml version="1.0" encoding="UTF-8" standalone="no"?>
<!-- Created with Inkscape (http://www.inkscape.org/) -->

<svg
   xmlns:svg="http://www.w3.org/2000/svg"
   xmlns="http://www.w3.org/2000/svg"
   xmlns:xlink="http://www.w3.org/1999/xlink"
   version="1.1"
   width="256"
   height="256"
   viewBox="0 0 72.248889 72.24889"
   id="svg2859"
   xml:space="preserve"
   style="fill-rule:evenodd">
 <defs
   id="defs2861"><style
     type="text/css"
     id="style2863" /><filter
     color-interpolation-filters="sRGB"
     id="filter3944"><feGaussianBlur
       id="feGaussianBlur3946"
       stdDeviation="0.42723011" /></filter><filter
     color-interpolation-filters="sRGB"
     id="filter3804"><feGaussianBlur
       id="feGaussianBlur3806"
       stdDeviation="0.68675903" /></filter><filter
     color-interpolation-filters="sRGB"
     id="filter3892"><feGaussianBlur
       id="feGaussianBlur3894"
       stdDeviation="1.0431699" /></filter><linearGradient
     x1="23.43375"
     y1="4.5215988"
     x2="38.930431"
     y2="66.298477"
     id="linearGradient3828-217-900"
     xlink:href="#linearGradient3808-265-709"
     gradientUnits="userSpaceOnUse" /><linearGradient
     x1="138.33575"
     y1="164.91815"
     x2="128.92834"
     y2="125.37787"
     id="linearGradient3808-265-709"
     gradientUnits="userSpaceOnUse">
   <stop
   id="stop3381"
   style="stop-color:#e4ecef;stop-opacity:1"
   offset="0" />
   <stop
   id="stop3383"
   style="stop-color:#dfd9d9;stop-opacity:1"
   offset="1" />
  </linearGradient><linearGradient
     x1="136.46123"
     y1="164.91815"
     x2="126.54258"
     y2="125.37787"
     id="linearGradient3176-519-921"
     xlink:href="#linearGradient3808-476-985"
     gradientUnits="userSpaceOnUse"
     gradientTransform="matrix(1.5623783,0,0,1.5623782,-174.27363,-191.36605)" /><linearGradient
     x1="138.33575"
     y1="164.91815"
     x2="128.92834"
     y2="125.37787"
     id="linearGradient3808-476-985"
     gradientUnits="userSpaceOnUse">
   <stop
   id="stop3387"
   style="stop-color:#e4ecef;stop-opacity:1"
   offset="0" />
   <stop
   id="stop3389"
   style="stop-color:#dfd9d9;stop-opacity:1"
   offset="1" />
  </linearGradient><linearGradient
     x1="134.3044"
     y1="125.23096"
     x2="137.03894"
     y2="165.25784"
     id="linearGradient3171-842-479"
     xlink:href="#linearGradient3856-47-281"
     gradientUnits="userSpaceOnUse"
     gradientTransform="matrix(1.5623783,0,0,1.5623782,-174.27363,-191.36605)" /><linearGradient
     id="linearGradient3856-47-281"><stop
       id="stop3393"
       style="stop-color:#67a1d5;stop-opacity:1"
       offset="0" /><stop
       id="stop3395"
       style="stop-color:#5295d0;stop-opacity:1"
       offset="1" /></linearGradient><linearGradient
     x1="57.880135"
     y1="56.978737"
     x2="14.575186"
     y2="13.580413"
     id="linearGradient3926-850-298"
     xlink:href="#linearGradient4114-295-925"
     gradientUnits="userSpaceOnUse" /><linearGradient
     id="linearGradient4114-295-925"><stop
       id="stop3399"
       style="stop-color:#dbe4e8;stop-opacity:1"
       offset="0" /><stop
       id="stop3401"
       style="stop-color:#dbe4e8;stop-opacity:1"
       offset="0.5" /><stop
       id="stop3403"
       style="stop-color:#3177b7;stop-opacity:1"
       offset="1" /></linearGradient></defs>
 
<g
   id="g2930"><rect
     width="68.675903"
     height="68.675903"
     rx="9.156786"
     ry="9.156786"
     x="1.7864932"
     y="1.7864946"
     id="rect3790"
     style="fill:#000000;fill-opacity:1;stroke:#000000;stroke-width:0.31247565;stroke-opacity:1;filter:url(#filter3804)" /><rect
     width="68.675903"
     height="68.675903"
     rx="9.156786"
     ry="9.156786"
     x="1.2220488"
     y="1.2220502"
     id="rect2890"
     style="fill:url(#linearGradient3828-217-900);fill-opacity:1;stroke:url(#linearGradient3176-519-921);stroke-width:0.31247565" /><rect
     width="62.224525"
     height="62.224525"
     rx="8.4514427"
     ry="8.4514427"
     x="4.4483666"
     y="4.44839"
     id="rect2892"
     style="fill:url(#linearGradient3171-842-479);fill-opacity:1;stroke:#3177b7;stroke-width:0.31262496;stroke-miterlimit:4;stroke-opacity:1;stroke-dasharray:none" /><rect
     width="37.536396"
     height="36.768444"
     rx="5.0982575"
     ry="4.9939528"
     x="115.43134"
     y="126.75334"
     transform="matrix(1.6303843,0,0,1.6621646,-183.24999,-205.58995)"
     id="rect2892-1"
     style="fill:#3177b7;fill-opacity:1;fill-rule:evenodd;stroke:#3177b7;stroke-width:0.1866491;stroke-miterlimit:4;stroke-opacity:1;stroke-dasharray:none;filter:url(#filter3944)" /><path
     d="m 24.642842,10.777669 c -4.085283,0.02114 -5.172155,0.697208 -8.834071,4.185451 -4.185045,3.986565 -4.541957,4.790692 -4.682308,10.568898 -0.140351,5.778205 0.173622,6.594384 4.16018,10.779434 3.080639,3.234025 4.274414,4.185399 7.318215,4.513888 -0.07762,0.719843 -0.1179,1.449142 -0.1179,2.189573 0,11.171323 9.056803,20.228282 20.228252,20.228282 11.1713,0 20.236674,-9.056959 20.236674,-20.228282 0,-11.171466 -9.065374,-20.228282 -20.236674,-20.228282 -0.4695,0 -0.927997,0.0106 -1.389535,0.04211 -0.01097,-0.04538 -0.02231,-0.08953 -0.03369,-0.134743 -0.22168,-2.839978 -1.148761,-4.091171 -4.126494,-7.217168 -3.986561,-4.185051 -4.790686,-4.533543 -10.568884,-4.673894 -0.722274,-0.01754 -1.370158,-0.02828 -1.953769,-0.02526 z"
     id="path3846"
     style="fill:#dbe4e8;fill-opacity:0;fill-rule:evenodd;stroke:#000000;stroke-width:2.29062796;stroke-miterlimit:4;stroke-opacity:1;stroke-dasharray:none;filter:url(#filter3892)" /><path
     d="m 24.376595,10.245174 c -4.085283,0.02114 -5.172155,0.697208 -8.834071,4.185451 -4.185045,3.986565 -4.541957,4.790692 -4.682308,10.568898 -0.140351,5.778205 0.173622,6.594384 4.16018,10.779434 3.080639,3.234025 4.274414,4.185399 7.318215,4.513888 -0.07762,0.719843 -0.1179,1.449142 -0.1179,2.189573 0,11.171323 9.056803,20.228282 20.228252,20.228282 11.1713,0 20.236674,-9.056959 20.236674,-20.228282 0,-11.171466 -9.065374,-20.228282 -20.236674,-20.228282 -0.4695,0 -0.927997,0.0106 -1.389535,0.04211 -0.01097,-0.04538 -0.02231,-0.08953 -0.03369,-0.134743 -0.22168,-2.839978 -1.148761,-4.091171 -4.126494,-7.217168 -3.986561,-4.185051 -4.790686,-4.533543 -10.568884,-4.673894 -0.722274,-0.01754 -1.370158,-0.02828 -1.953769,-0.02526 z"
     id="path2894-9"
     style="fill:url(#linearGradient3926-850-298);fill-opacity:1;fill-rule:evenodd;stroke:#dbe4e8;stroke-width:2.29062796;stroke-miterlimit:4;stroke-opacity:1;stroke-dasharray:none" /><path
     d="m 36.78125,4.34375 c -17.974698,0 -32.4375,14.462802 -32.4375,32.4375 l 0,110.75 c 25.150362,7.80409 54.065031,12.25 84.8125,12.25 69.77174,0 130.04971,-22.88437 158.5,-56.03125 l 0,-66.96875 c 0,-17.974698 -14.4628,-32.4375 -32.4375,-32.4375 l -178.4375,0 z"
     transform="matrix(0.28222223,0,0,0.28222223,-5e-7,0)"
     id="rect4342"
     style="fill:#ffffff;fill-opacity:0.24896264;stroke:none" /></g></svg>